<svg height="233.43805601669058" width="350"
    style="width: 350px; height: 233.438px; position: absolute; top: 50%; left: 50%; transform: translate(-50%, -50%) scale(1); z-index: 0; cursor: pointer;">
    <defs id="SvgjsDefs1001">
        <linearGradient id="SvgjsLinearGradient1013">
            <stop id="SvgjsStop1014" stop-color="#7f00ff" offset="0"></stop>
            <stop id="SvgjsStop1015" stop-color="#e100ff" offset="1"></stop>
        </linearGradient>
        <linearGradient id="SvgjsLinearGradient1016">
            <stop id="SvgjsStop1017" stop-color="#7f00ff" offset="0"></stop>
            <stop id="SvgjsStop1018" stop-color="#e100ff" offset="1"></stop>
        </linearGradient>
    </defs>
    <g id="SvgjsG1007" featurekey="symbolFeature-0" transform="matrix(1.4,0,0,1.4,105,0.0000026702880859375)"
        fill="url(#SvgjsLinearGradient1013)">
        <g xmlns="http://www.w3.org/2000/svg">
            <path style=""
                d="M81.177,38.165c-0.085,4.334-1.05,8.423-2.759,12.152C87.427,51.818,87.5,59.155,87.5,62.5   c0,3.101,0,12.5-12.488,12.5H62.5c-8.143,0-15.43,3.931-19.995,10.01C39.478,82.715,37.5,79.077,37.5,75V62.5   c0-2.472,0.439-4.419,1.123-6.024c-0.366-0.067-0.732-0.226-1.123-0.226H25.635c-0.402,1.935-0.623,4.004-0.623,6.25V75   c0,13.807,11.182,25,24.988,25c0-6.909,5.591-12.5,12.5-12.5h12.512C87.5,87.5,100,80.469,100,62.5   C100,47.211,91.309,40.125,81.177,38.165z"
                fill="url(#SvgjsLinearGradient1013)"></path>
        </g>
        <path xmlns="http://www.w3.org/2000/svg" style=""
            d="M50,12.5c4.663,0,12.5,1.623,12.5,12.5v12.5c0,4.09-1.978,7.721-5.005,10.004  C52.93,41.437,45.654,37.5,37.5,37.5H25.012C12.5,37.5,12.5,28.095,12.5,25c0-3.735,0-12.5,12.512-12.5H50 M50,0H25.012  C12.5,0,0,6.641,0,25c0,17.969,12.5,25,25.012,25H37.5C44.409,50,50,55.604,50,62.5c13.807,0,25.012-11.193,25.012-25V25  C75.012,7.745,62.5,0,50,0L50,0z"
            fill="url(#SvgjsLinearGradient1013)"></path>
    </g>
    <g id="SvgjsG1008" featurekey="nameFeature-0"
        transform="matrix(1.2350031562101098,0,0,1.2350031562101098,0.00010482338037748316,145.2293680935694)"
        fill="url(#SvgjsLinearGradient1016)">
        <path
            d="M43.2 11.96 l10.8 0 c-0.6 1 -4.64 8.04 -8.52 14.8 c-2.28 3.96 -4.8 8.4 -7.64 13.24 l-3.6 0 l-3.16 -5.4 c-1.6 -2.92 -3.44 -5.92 -4.08 -7.08 c-1.88 3.24 -3.64 6.32 -4.96 8.68 c-0.76 1.36 -1.52 2.64 -2.2 3.8 l-3.6 0 c0.32 -0.64 9.84 -17.28 10.76 -18.68 c0.08 0.08 2.32 3.96 4.56 7.84 l4.48 7.72 c1.92 -3.32 5.04 -8.8 7.72 -13.4 l4.84 -8.4 l-3.6 0 c-3.52 6.2 -6.04 10.6 -8.92 15.48 l-4.48 -7.6 l-4.6 -7.88 c-5 8.64 -7.96 13.92 -12.56 21.8 c-0.28 -0.48 -14.48 -24.88 -14.44 -24.92 l10.8 0 l5.44 9.36 l-1.8 3.12 l-5.44 -9.36 l-3.6 0 c0.8 1.28 8.28 14.32 9.04 15.56 l7.84 -13.6 l2.92 -5.08 l3.6 0 c0.36 0.68 5.56 9.6 7.28 12.4 c2.24 -3.84 3.96 -6.88 5.2 -9.08 z M94.02000000000001 11.96 l0 9.36 l-21.24 0 l0 3.12 l15.76 0 l0 3.12 l-18.88 0 l0 -9.36 l21.24 0 l0 -3.12 l-24.36 0 l0 21.8 l24.36 0 l0 -3.12 l-21.24 0 l0 -3.12 l24.36 0 l0 9.36 l-30.6 0 l0 -28.04 l30.6 0 z M161.06 11.96 l0 9.4 l-17.2 0 c-2.36 0.2 -4.16 2.24 -4.16 4.64 s1.8 4.36 4.16 4.64 l10.96 0 l0 3.12 l-10.96 0 c-4.04 -0.32 -7.24 -3.64 -7.24 -7.8 c0 -4 3.08 -7.4 7.08 -7.72 l14.24 0 l0 -3.16 l-14.08 0 l0 0.04 c-5.72 0.32 -10.28 5.04 -10.28 10.88 c0 5.8 4.56 10.56 10.28 10.88 l14.08 0 l0 -6.24 l3.12 0 l0 9.36 l-17.2 0 c-7.48 -0.32 -13.4 -6.48 -13.4 -14 c0 -7.56 5.92 -13.68 13.4 -14 z M193.32000000000002 21.32 l0 -9.36 l9.36 0 l0 28.04 l-9.36 0 l0 -9.32 l-18.12 0 l0 6.2 l3.12 0 l0 -3.12 l3.12 0 l0 6.24 l-9.36 0 l0 -12.48 l24.4 0 l0 9.36 l3.08 0 l0 -21.8 l-3.08 0 l0 9.36 l-18.16 0 l0 -9.36 l-3.12 0 l0 9.36 l-3.12 0 l0 -12.48 l9.36 0 l0 9.36 l11.88 0 z M233.46 30.64 l1.8 -3.12 l5.44 9.36 l3.6 0 c-0.8 -1.28 -8.4 -14.28 -9.04 -15.56 l-7.84 13.6 l-2.92 5.08 l-10.8 0 c0.6 -1 4.64 -8.04 8.52 -14.8 c2.28 -3.96 4.8 -8.4 7.64 -13.24 l3.6 0 l-7.44 12.88 l-6.92 12.04 l3.6 0 c4.92 -8.68 8 -13.8 12.56 -21.8 c0.28 0.48 14.36 24.88 14.44 24.92 l-10.8 0 z M252.80000000000004 21.32 l0 -9.36 l30.6 0 l0 9.36 l-7.52 0 l0 -3.12 l4.4 0 l0 -3.12 l-24.36 0 l0 3.12 l10.64 0 l-0.04 18.68 l3.12 0 l0 -18.68 l3.12 0 l0 21.8 l-9.36 0 l0 -18.68 l-10.6 0 z">
        </path>
    </g>
    <g id="SvgjsG1009" featurekey="sloganFeature-0"
        transform="matrix(1.1743981299823303,0,0,1.1743981299823303,32.416323778040876,209.5507956336644)"
        fill="#ffffff">
        <path
            d="M4.36 7.279999999999999 l0 4.56 q0.62 -0.36 1.4 -0.5 q0.58 -0.1 1.44 -0.1 l2.56 0 q1.04 0 1.63 -0.52 t0.59 -1.54 q0 -1.9 -2.22 -1.9 l-5.4 0 z M4.36 14.059999999999999 l0 3.76 l5.62 0 q0.66 0 1.26 -0.24 q0.66 -0.24 1.04 -0.7 q0.44 -0.54 0.44 -1.24 q0 -1.2 -0.94 -1.74 q-0.74 -0.44 -2.02 -0.44 l-2.56 0 q-1.72 0 -2.84 0.6 z M14.88 15.92 q0 1.4 -0.78 2.38 q-0.68 0.86 -1.92 1.3 q-1.1 0.4 -2.42 0.4 l-7.56 0 l0 -14.92 l7.56 0 q1.28 0 2.27 0.48 t1.55 1.38 q0.58 0.94 0.58 2.22 q0 0.98 -0.35 1.75 t-0.99 1.19 q0.86 0.4 1.42 1.32 q0.64 1.06 0.64 2.5 z M24.98 20.34 q-2.1 0 -3.61 -0.73 t-2.3 -2.11 t-0.79 -3.3 l0 -9.12 l2.16 0 l0 9.12 q0 1.92 1.18 2.94 t3.36 1.02 t3.36 -1.02 t1.18 -2.94 l0 -9.12 l2.16 0 l0 9.12 q0 1.92 -0.79 3.3 t-2.3 2.11 t-3.61 0.73 z M38.02000000000001 20 l-2.14 0 l0 -14.92 l2.14 0 l0 14.92 z M52.88000000000001 20 l-10.46 0 l0 -14.92 l2.18 0 l0 12.74 l8.28 0 l0 2.18 z M58.46000000000001 7.279999999999999 l0 10.54 l3.38 0 q1.4 0 2.52 -0.72 q1.06 -0.7 1.66 -1.88 t0.6 -2.58 q0 -1.46 -0.57 -2.68 t-1.63 -1.94 q-1.14 -0.74 -2.62 -0.74 l-3.34 0 z M55.14000000000001 7.279999999999999 l-0.96 -2.2 l7.6 0 q1.98 0 3.62 1.02 q1.58 0.98 2.5 2.68 t0.92 3.7 q0 1.5 -0.59 2.97 t-1.63 2.57 q-1 1.08 -2.14 1.54 q-1.1 0.44 -2.62 0.44 l-5.52 0 l0 -12.72 l-1.18 0 z M82.30000000000001 6.66 l-0.82 -1.84 l2.4 0 l7.18 15.18 l-2.44 0 l-0.98 -2.18 l-4.54 0 q-1.28 0 -2.3 0.24 q-0.9 0.22 -1.5 0.58 q-0.54 0.32 -0.72 0.66 l-0.38 0.7 l-2.36 0 z M83.9 15.620000000000001 l2.76 0 l-3.26 -6.3 l-3.3 7.14 q0.44 -0.38 1.34 -0.6 q1.02 -0.24 2.46 -0.24 z M112.06000000000002 7 l-1.4 1.64 q-0.82 -0.84 -1.96 -1.32 t-2.4 -0.48 q-1.64 0 -2.99 0.74 t-2.11 2.02 q-0.78 1.34 -0.78 2.98 q0 1.56 0.84 2.88 q0.8 1.24 2.15 1.97 t2.91 0.73 q1.44 0 2.68 -0.62 t2.06 -1.72 l1.34 1.82 q-1.14 1.28 -2.73 1.99 t-3.37 0.71 q-2.22 0 -4.08 -1.08 q-1.82 -1.04 -2.86 -2.86 q-1.08 -1.86 -1.08 -4.08 q0 -2.14 1.14 -3.94 q1.08 -1.72 2.93 -2.73 t3.97 -1.01 q1.66 0 3.16 0.64 q1.46 0.6 2.58 1.72 z M128.5 12.440000000000001 q0 -1.6 -0.82 -2.9 q-0.78 -1.26 -2.13 -1.98 t-2.93 -0.72 q-1.64 0 -2.99 0.74 t-2.11 2.02 q-0.78 1.34 -0.78 2.98 q0 1.56 0.84 2.88 q0.8 1.24 2.15 1.97 t2.92 0.73 t2.92 -0.76 t2.13 -2.04 q0.8 -1.34 0.8 -2.92 z M130.66 12.559999999999999 q0 2.16 -1.12 3.98 q-1.08 1.74 -2.93 2.77 t-3.99 1.03 q-2.22 0 -4.08 -1.08 q-1.82 -1.04 -2.86 -2.86 q-1.08 -1.86 -1.08 -4.08 q0 -2.14 1.14 -3.94 q1.08 -1.72 2.93 -2.73 t3.97 -1.01 q2.18 0 4.04 1.06 q1.82 1.04 2.88 2.82 q1.1 1.86 1.1 4.04 z M146.8 9.74 l-5.1 6.1 l-5.06 -6.1 l0 10.26 l-2.14 0 l0 -12.82 l-1.74 -2.1 l2.82 0 l6.1 7.32 l6.18 -7.32 l2.82 0 l-1.74 2.1 l0 12.82 l-2.14 0 l0 -10.26 z M166.52 9.74 l-5.1 6.1 l-5.06 -6.1 l0 10.26 l-2.14 0 l0 -12.82 l-1.74 -2.1 l2.82 0 l6.1 7.32 l6.18 -7.32 l2.82 0 l-1.74 2.1 l0 12.82 l-2.14 0 l0 -10.26 z M180 20.34 q-2.1 0 -3.61 -0.73 t-2.3 -2.11 t-0.79 -3.3 l0 -9.12 l2.16 0 l0 9.12 q0 1.92 1.18 2.94 t3.36 1.02 t3.36 -1.02 t1.18 -2.94 l0 -9.12 l2.16 0 l0 9.12 q0 1.92 -0.79 3.3 t-2.3 2.11 t-3.61 0.73 z M191.34 7.18 l-1.74 -2.1 l2.82 0 l9.58 11.4 l0 -11.4 l2.2 0 l0 14.92 l-2.16 0 l-8.56 -10.26 l0 10.26 l-2.14 0 l0 -12.82 z M210.74 20 l-2.14 0 l0 -14.92 l2.14 0 l0 14.92 z M226.24 7.279999999999999 l-5.26 0 l0 12.72 l-2.12 0 l0 -12.72 l-5.32 0 l0 -2.2 l12.7 0 l0 2.2 z M233.98 11.64 q1.34 -1.4 2.42 -3.12 t1.72 -3.44 l2.5 0 q-1.02 2.38 -2.48 4.56 q-1.32 1.98 -3.08 3.9 l0 6.46 l-2.16 0 l0 -6.46 q-1.76 -1.92 -3.08 -3.9 q-1.46 -2.18 -2.48 -4.56 l2.5 0 q0.64 1.72 1.72 3.44 t2.42 3.12 z">
        </path>
    </g>
</svg>